<svg xmlns="http://www.w3.org/2000/svg" xmlns:svg="http://www.w3.org/2000/svg" xmlns:xlink="http://www.w3.org/1999/xlink" version="1.0" height="1010pt" width="1090pt" viewBox="314.9999999999999 66.99999999999997 1098 1016" ><defs><style type="text/css">
            @font-face {
                font-family: 'noto_regular';
                src: url('https://app.creately.com/diagram/assets/fonts/noto/noto-regular.woff') format('woff'),
                     url('https://app.creately.com/diagram/assets/fonts/noto/noto-regular.woff2') format('woff2');
                font-weight: normal;
                font-style: normal;
            }
        p {
            margin: 0;
        }
        </style></defs><defs><style>
            span{ display: inline-block; }
        </style></defs><g id="nCcPyKF7ydr"><g transform="translate(550 160)"><rect x="0" y="0" width="120" height="60" fill="rgb(255,255,255)" stroke="#24afaf" stroke-width="2" stroke-linecap="round" stroke-linejoin="round"/></g><g transform="translate(585.425, 181) rotate(0, 24.575, 9)" width="49.15" height="18"><text text-decoration="none" x="2.5749999999999993" fill="#656565" font-size="10pt" font-family="noto_regular"  y="15">Student</text><text text-decoration="none" x="46.575" fill="#4b4b4b" font-size="10pt" font-family="noto_regular"  y="15"></text></g></g><g id="2ruurICrgey"><g transform="translate(550 330)"><rect x="0" y="0" width="120" height="60" fill="rgb(255,255,255)" stroke="#24afaf" stroke-width="2" stroke-linecap="round" stroke-linejoin="round"/></g><g transform="translate(578.755, 351) rotate(0, 31.245, 9)" width="62.49" height="18"><text text-decoration="none" x="3.745000000000001" fill="#656565" font-size="10pt" font-family="noto_regular"  y="15">Instructor</text><text text-decoration="none" x="58.745000000000005" fill="#4b4b4b" font-size="10pt" font-family="noto_regular"  y="15"></text></g></g><g id="eGWkzRwj20o"><g transform="translate(339.9999999999999 69.99999999999997)"><ellipse cx="55" cy="35" rx="55" ry="35" fill="white" stroke="#7e7e7e" stroke-width="2" stroke-linecap="round" stroke-linejoin="round"/></g><g transform="translate(364.0699999999999, 95.99999999999997) rotate(0, 30.93, 9)" width="61.86" height="18"><text text-decoration="none" x="3.4299999999999997" fill="#4b4b4b" font-size="10pt" font-family="noto_regular"  y="15">StudentId</text><text text-decoration="none" x="58.43" fill="#4b4b4b" font-size="10pt" font-family="noto_regular"  y="15"></text></g></g><g id="3Emjjs1X8l4"><g transform="translate(339.9999999999999 160.00000000000006)"><ellipse cx="55" cy="35" rx="55" ry="35" fill="white" stroke="#7e7e7e" stroke-width="2" stroke-linecap="round" stroke-linejoin="round"/></g><g transform="translate(351.6299999999999, 186.00000000000006) rotate(0, 43.37, 9)" width="86.74" height="18"><text text-decoration="none" x="4.369999999999997" fill="#4b4b4b" font-size="10pt" font-family="noto_regular"  y="15">StudentName</text><text text-decoration="none" x="82.37" fill="#4b4b4b" font-size="10pt" font-family="noto_regular"  y="15"></text></g></g><g id="kluzR5QxML9"><g transform="translate(330 289.99999999999994)"><ellipse cx="55.00000000000001" cy="34.99999999999999" rx="55.00000000000001" ry="34.99999999999999" fill="white" stroke="#7e7e7e" stroke-width="2" stroke-linecap="round" stroke-linejoin="round"/></g><g transform="translate(347.395, 315.99999999999994) rotate(0, 37.605, 9)" width="75.21" height="18"><text text-decoration="none" x="4.604999999999997" fill="#4b4b4b" font-size="10pt" font-family="noto_regular"  y="15">InstructorId</text><text text-decoration="none" x="70.60499999999999" fill="#4b4b4b" font-size="10pt" font-family="noto_regular"  y="15"></text></g></g><g id="SXiRldLaQd3"><g transform="translate(319.9999999999999 380.0000000000001)"><ellipse cx="65" cy="35" rx="65" ry="35" fill="white" stroke="#7e7e7e" stroke-width="2" stroke-linecap="round" stroke-linejoin="round"/></g><g transform="translate(334.95999999999987, 406.0000000000001) rotate(0, 50.04, 9)" width="100.08" height="18"><text text-decoration="none" x="5.539999999999999" fill="#4b4b4b" font-size="10pt" font-family="noto_regular"  y="15">InstructorName</text><text text-decoration="none" x="94.53999999999999" fill="#4b4b4b" font-size="10pt" font-family="noto_regular"  y="15"></text></g></g><g id="sOeSTrOXWJu"><g transform="translate(790.0000000000002 149.99999999999994)"><path d="M 60,0 L 0,40 L 60,80 L 120,40 L 60,0 Z" fill="rgb(255,255,255)" stroke="#4b4b4b" stroke-width="2" stroke-linecap="round" stroke-linejoin="round"/></g><g transform="translate(804.5050000000002, 180.99999999999994) rotate(0, 45.495, 9)" width="90.99" height="18"><text text-decoration="none" x="5.494999999999997" fill="#656565" font-size="10pt" font-family="noto_regular"  y="15">Could&#160;</text><text text-decoration="none" x="40.495" fill="#656565" font-size="10pt" font-family="noto_regular"  y="15">Attempt</text><text text-decoration="none" x="85.495" fill="#4b4b4b" font-size="10pt" font-family="noto_regular"  y="15"></text></g></g><g id="CNYQg6f1oKI"><g transform="translate(1010.0000000000002 160.00000000000006)"><rect x="0" y="0" width="120" height="60" fill="rgb(255,255,255)" stroke="#24afaf" stroke-width="2" stroke-linecap="round" stroke-linejoin="round"/></g><g transform="translate(1055.8200000000002, 181.00000000000006) rotate(0, 14.18, 9)" width="28.36" height="18"><text text-decoration="none" x="1.6799999999999997" fill="#656565" font-size="10pt" font-family="noto_regular"  y="15">Quiz</text><text text-decoration="none" x="26.68" fill="#4b4b4b" font-size="10pt" font-family="noto_regular"  y="15"></text></g></g><g id="FYOMIHwS1Tp"><g transform="translate(1010 270)"><path d="M 60,0 L 0,40 L 60,80 L 120,40 L 60,0 Z" fill="rgb(255,255,255)" stroke="#4b4b4b" stroke-width="2" stroke-linecap="round" stroke-linejoin="round"/></g><g transform="translate(1058.125, 301) rotate(0, 11.875, 9)" width="23.75" height="18"><text text-decoration="none" x="0.375" fill="#656565" font-size="10pt" font-family="noto_regular"  y="15">Has</text><text text-decoration="none" x="23.375" fill="#4b4b4b" font-size="10pt" font-family="noto_regular"  y="15"></text></g></g><g id="gYeqSUlIsWv"><g transform="translate(1010 460)"><path d="M 60,0 L 0,40 L 60,80 L 120,40 L 60,0 Z" fill="rgb(255,255,255)" stroke="#4b4b4b" stroke-width="2" stroke-linecap="round" stroke-linejoin="round"/></g><g transform="translate(1043.115, 491) rotate(0, 26.885, 9)" width="53.77" height="18"><text text-decoration="none" x="2.3850000000000016" fill="#656565" font-size="10pt" font-family="noto_regular"  y="15">Made&#160;</text><text text-decoration="none" x="37.385000000000005" fill="#656565" font-size="10pt" font-family="noto_regular"  y="15">Of</text><text text-decoration="none" x="51.385000000000005" fill="#4b4b4b" font-size="10pt" font-family="noto_regular"  y="15"></text></g></g><g id="qh4iOmygVx9"><g transform="translate(1010.0000000000002 690.0000000000001)"><path d="M 60,0 L 0,40 L 60,80 L 120,40 L 60,0 Z" fill="rgb(255,255,255)" stroke="#4b4b4b" stroke-width="2" stroke-linecap="round" stroke-linejoin="round"/></g><g transform="translate(1042.4600000000003, 721.0000000000001) rotate(0, 27.54, 9)" width="55.08" height="18"><text text-decoration="none" x="2.539999999999999" fill="#656565" font-size="10pt" font-family="noto_regular"  y="15">Contains</text><text text-decoration="none" x="52.54" fill="#4b4b4b" font-size="10pt" font-family="noto_regular"  y="15"></text></g></g><g id="aFsBqfEhgwD"><g transform="translate(750.0000000000005 700)"><rect x="0" y="0" width="120" height="60.000003324279774" fill="white" stroke="#7e7e7e" stroke-width="2" stroke-linecap="round" stroke-linejoin="round"/></g><g transform="translate(781.3550000000005, 721.0000016621399) rotate(0, 28.645, 9)" width="57.29" height="18"><text text-decoration="none" x="1.6449999999999996" fill="#4b4b4b" font-size="10pt" font-family="noto_regular"  y="15">SubTopic</text><text text-decoration="none" x="55.644999999999996" fill="#4b4b4b" font-size="10pt" font-family="noto_regular"  y="15"></text></g></g><g id="X8YLzaE9zbq"><g transform="translate(1010 570)"><rect x="0" y="0" width="120" height="60.000003324279774" fill="white" stroke="#7e7e7e" stroke-width="2" stroke-linecap="round" stroke-linejoin="round"/></g><g transform="translate(1041.445, 591.0000016621399) rotate(0, 28.555, 9)" width="57.11" height="18"><text text-decoration="none" x="3.0549999999999997" fill="#4b4b4b" font-size="10pt" font-family="noto_regular"  y="15">Question</text><text text-decoration="none" x="54.055" fill="#4b4b4b" font-size="10pt" font-family="noto_regular"  y="15"></text></g></g><g id="xa1Pgakfz7t"><g transform="translate(1010 370)"><rect x="0" y="0" width="120" height="60.000003324279774" fill="white" stroke="#7e7e7e" stroke-width="2" stroke-linecap="round" stroke-linejoin="round"/></g><g transform="translate(1041.445, 381.9950016621399) rotate(0, 28.555, 18.005)" width="57.11" height="36.01"><text text-decoration="none" x="14.555" fill="#4b4b4b" font-size="10pt" font-family="noto_regular"  y="12">Quiz&#160;</text><text text-decoration="none" x="42.555" fill="#4b4b4b" font-size="10pt" font-family="noto_regular"  y="12"></text><text text-decoration="none" x="3.0549999999999997" fill="#4b4b4b" font-size="10pt" font-family="noto_regular"  y="31">Question</text><text text-decoration="none" x="54.055" fill="#4b4b4b" font-size="10pt" font-family="noto_regular"  y="31"></text></g></g><g id="Al5Z2LU9Xxu"><g transform="translate(550 690.0000000000001)"><path d="M 60,0 L 0,40 L 60,80 L 120,40 L 60,0 Z" fill="rgb(255,255,255)" stroke="#4b4b4b" stroke-width="2" stroke-linecap="round" stroke-linejoin="round"/></g><g transform="translate(594.17, 721.0000000000001) rotate(0, 15.83, 9)" width="31.66" height="18"><text text-decoration="none" x="1.33" fill="#656565" font-size="10pt" font-family="noto_regular"  y="15">Have</text><text text-decoration="none" x="30.33" fill="#4b4b4b" font-size="10pt" font-family="noto_regular"  y="15"></text></g></g><g id="WkRaE1I3xyp"><g transform="translate(550 610)"><rect x="0" y="0" width="120" height="60.000003324279774" fill="white" stroke="#7e7e7e" stroke-width="2" stroke-linecap="round" stroke-linejoin="round"/></g><g transform="translate(593.24, 631.0000016621399) rotate(0, 16.76, 9)" width="33.52" height="18"><text text-decoration="none" x="0.7600000000000016" fill="#4b4b4b" font-size="10pt" font-family="noto_regular"  y="15">Topic</text><text text-decoration="none" x="32.760000000000005" fill="#4b4b4b" font-size="10pt" font-family="noto_regular"  y="15"></text></g></g><g id="1xl6W22BIxn"><g transform="translate(550 489.9999982470703)"><path d="M 60,0 L 0,40 L 60,80 L 120,40 L 60,0 Z" fill="rgb(255,255,255)" stroke="#4b4b4b" stroke-width="2" stroke-linecap="round" stroke-linejoin="round"/></g><g transform="translate(587.02, 520.9999982470704) rotate(0, 22.98, 9)" width="45.96" height="18"><text text-decoration="none" x="2.9800000000000004" fill="#656565" font-size="10pt" font-family="noto_regular"  y="15">Update</text><text text-decoration="none" x="42.980000000000004" fill="#4b4b4b" font-size="10pt" font-family="noto_regular"  y="15"></text></g></g><g id="Tw2tKyWSQDX"><g transform="translate(790 480)"><path d="M 60,0 L 0,40 L 60,80 L 120,40 L 60,0 Z" fill="rgb(255,255,255)" stroke="#4b4b4b" stroke-width="2" stroke-linecap="round" stroke-linejoin="round"/></g><g transform="translate(815.55, 511) rotate(0, 34.45, 9)" width="68.9" height="18"><text text-decoration="none" x="3.450000000000003" fill="#656565" font-size="10pt" font-family="noto_regular"  y="15">Can&#160;</text><text text-decoration="none" x="28.450000000000003" fill="#656565" font-size="10pt" font-family="noto_regular"  y="15">Create</text><text text-decoration="none" x="65.45" fill="#4b4b4b" font-size="10pt" font-family="noto_regular"  y="15"></text></g></g><g id="OZ3lWNBWX0v"><g transform="translate(360 520)"><ellipse cx="55.00000000000001" cy="34.99999999999999" rx="55.00000000000001" ry="34.99999999999999" fill="white" stroke="#7e7e7e" stroke-width="2" stroke-linecap="round" stroke-linejoin="round"/></g><g transform="translate(391.88, 546) rotate(0, 23.12, 9)" width="46.24" height="18"><text text-decoration="none" x="1.620000000000001" fill="#4b4b4b" font-size="10pt" font-family="noto_regular"  y="15">TopicId</text><text text-decoration="none" x="44.620000000000005" fill="#4b4b4b" font-size="10pt" font-family="noto_regular"  y="15"></text></g></g><g id="E6YPk65iM4U"><g transform="translate(360 609.9999993551636)"><ellipse cx="55.00000000000001" cy="34.99999999999999" rx="55.00000000000001" ry="34.99999999999999" fill="white" stroke="#7e7e7e" stroke-width="2" stroke-linecap="round" stroke-linejoin="round"/></g><g transform="translate(379.445, 635.9999993551636) rotate(0, 35.555, 9)" width="71.11" height="18"><text text-decoration="none" x="2.5549999999999997" fill="#4b4b4b" font-size="10pt" font-family="noto_regular"  y="15">TopicName</text><text text-decoration="none" x="68.555" fill="#4b4b4b" font-size="10pt" font-family="noto_regular"  y="15"></text></g></g><g id="HuPQVjA0gxo"><g transform="translate(350 700)"><ellipse cx="65" cy="34.99999999999999" rx="65" ry="34.99999999999999" fill="white" stroke="#7e7e7e" stroke-width="2" stroke-linecap="round" stroke-linejoin="round"/></g><g transform="translate(362.375, 726) rotate(0, 52.625, 9)" width="105.25" height="18"><text text-decoration="none" x="4.125" fill="#4b4b4b" font-size="10pt" font-family="noto_regular"  y="15">TopicDescription</text><text text-decoration="none" x="101.125" fill="#4b4b4b" font-size="10pt" font-family="noto_regular"  y="15"></text></g></g><g id="5y3SboqB9Ts"><g transform="translate(620 810.0000000000003)"><ellipse cx="55.00000000000001" cy="34.99999999999999" rx="55.00000000000001" ry="34.99999999999999" fill="white" stroke="#7e7e7e" stroke-width="2" stroke-linecap="round" stroke-linejoin="round"/></g><g transform="translate(640, 836.0000000000003) rotate(0, 35, 9)" width="70" height="18"><text text-decoration="none" x="2.5" fill="#4b4b4b" font-size="10pt" font-family="noto_regular"  y="15">SubTopicId</text><text text-decoration="none" x="67.5" fill="#4b4b4b" font-size="10pt" font-family="noto_regular"  y="15"></text></g></g><g id="HjN58dsfdqt"><g transform="translate(740 890.0000000000006)"><ellipse cx="75" cy="34.99999999999999" rx="75" ry="34.99999999999999" fill="white" stroke="#7e7e7e" stroke-width="2" stroke-linecap="round" stroke-linejoin="round"/></g><g transform="translate(750.5, 916.0000000000006) rotate(0, 64.5, 9)" width="129" height="18"><text text-decoration="none" x="5" fill="#4b4b4b" font-size="10pt" font-family="noto_regular"  y="15">SubTopicDescription</text><text text-decoration="none" x="124" fill="#4b4b4b" font-size="10pt" font-family="noto_regular"  y="15"></text></g></g><g id="6iJ8sVobrKB"><g transform="translate(900 810.0000000000001)"><ellipse cx="60" cy="34.99999999999999" rx="60" ry="34.99999999999999" fill="white" stroke="#7e7e7e" stroke-width="2" stroke-linecap="round" stroke-linejoin="round"/></g><g transform="translate(912.57, 836.0000000000001) rotate(0, 47.43, 9)" width="94.86" height="18"><text text-decoration="none" x="3.4299999999999997" fill="#4b4b4b" font-size="10pt" font-family="noto_regular"  y="15">SubTopicName</text><text text-decoration="none" x="91.43" fill="#4b4b4b" font-size="10pt" font-family="noto_regular"  y="15"></text></g></g><g id="5k1CyRdUCpj"><g transform="translate(1190 99.99999999999999)"><ellipse cx="55" cy="35" rx="55" ry="35" fill="white" stroke="#7e7e7e" stroke-width="2" stroke-linecap="round" stroke-linejoin="round"/></g><g transform="translate(1214.07, 126) rotate(0, 30.93, 9)" width="61.86" height="18"><text text-decoration="none" x="3.4299999999999997" fill="#4b4b4b" font-size="10pt" font-family="noto_regular"  y="15">StudentId</text><text text-decoration="none" x="58.43" fill="#4b4b4b" font-size="10pt" font-family="noto_regular"  y="15"></text></g></g><g id="opB7HlA6iNi"><g transform="translate(1200 190.00000477123262)"><ellipse cx="55" cy="35" rx="55" ry="35" fill="white" stroke="#7e7e7e" stroke-width="2" stroke-linecap="round" stroke-linejoin="round"/></g><g transform="translate(1222.02, 216.00000477123262) rotate(0, 32.98, 9)" width="65.96" height="18"><text text-decoration="none" x="3.479999999999997" fill="#4b4b4b" font-size="10pt" font-family="noto_regular"  y="15">QuizName</text><text text-decoration="none" x="62.48" fill="#4b4b4b" font-size="10pt" font-family="noto_regular"  y="15"></text></g></g><g id="mb57zBbYIj6"><g transform="translate(1280.0000000000002 270)"><ellipse cx="55" cy="35" rx="55" ry="35" fill="white" stroke="#7e7e7e" stroke-width="2" stroke-linecap="round" stroke-linejoin="round"/></g><g transform="translate(1300.0850000000003, 296) rotate(0, 34.915, 9)" width="69.83" height="18"><text text-decoration="none" x="3.914999999999999" fill="#4b4b4b" font-size="10pt" font-family="noto_regular"  y="15">QuestionId</text><text text-decoration="none" x="65.91499999999999" fill="#4b4b4b" font-size="10pt" font-family="noto_regular"  y="15"></text></g></g><g id="cSD9sBoWAWq"><g transform="translate(1280.0000000000005 360.00000000000006)"><ellipse cx="55" cy="35" rx="55" ry="35" fill="white" stroke="#7e7e7e" stroke-width="2" stroke-linecap="round" stroke-linejoin="round"/></g><g transform="translate(1314.4600000000005, 386.00000000000006) rotate(0, 20.54, 9)" width="41.08" height="18"><text text-decoration="none" x="2.539999999999999" fill="#4b4b4b" font-size="10pt" font-family="noto_regular"  y="15">QuizId</text><text text-decoration="none" x="38.54" fill="#4b4b4b" font-size="10pt" font-family="noto_regular"  y="15"></text></g></g><g id="jyl6cyeQlDY"><g transform="translate(1270 440.00000000000006)"><ellipse cx="69.9999999999999" cy="35" rx="69.9999999999999" ry="35" fill="white" stroke="#7e7e7e" stroke-width="2" stroke-linecap="round" stroke-linejoin="round"/></g><g transform="translate(1280.56, 466.00000000000006) rotate(0, 59.44, 9)" width="118.88" height="18"><text text-decoration="none" x="5.939999999999998" fill="#4b4b4b" font-size="10pt" font-family="noto_regular"  y="15">QuizQuestion&#160;</text><text text-decoration="none" x="84.94" fill="#4b4b4b" font-size="10pt" font-family="noto_regular"  y="15">Type</text><text text-decoration="none" x="112.94" fill="#4b4b4b" font-size="10pt" font-family="noto_regular"  y="15"></text></g></g><g id="c6DCARWXMyp"><g transform="translate(1249.9999999999998 520)"><ellipse cx="55" cy="35" rx="55" ry="35" fill="white" stroke="#7e7e7e" stroke-width="2" stroke-linecap="round" stroke-linejoin="round"/></g><g transform="translate(1284.4599999999998, 546) rotate(0, 20.54, 9)" width="41.08" height="18"><text text-decoration="none" x="2.539999999999999" fill="#4b4b4b" font-size="10pt" font-family="noto_regular"  y="15">QuizId</text><text text-decoration="none" x="38.54" fill="#4b4b4b" font-size="10pt" font-family="noto_regular"  y="15"></text></g></g><g id="CwI3pcCZY8V"><g transform="translate(1270 590.0000000000001)"><ellipse cx="55" cy="35" rx="55" ry="35" fill="white" stroke="#7e7e7e" stroke-width="2" stroke-linecap="round" stroke-linejoin="round"/></g><g transform="translate(1289.13, 606.9950000000001) rotate(0, 35.87, 18.005)" width="71.74" height="36.01"><text text-decoration="none" x="10.369999999999997" fill="#4b4b4b" font-size="10pt" font-family="noto_regular"  y="12">Question&#160;</text><text text-decoration="none" x="3.3699999999999974" fill="#4b4b4b" font-size="10pt" font-family="noto_regular"  y="31">Description</text><text text-decoration="none" x="68.37" fill="#4b4b4b" font-size="10pt" font-family="noto_regular"  y="31"></text></g></g><g id="Kj98Rgwycgr"><g transform="translate(1270 660.0000000000002)"><ellipse cx="55" cy="35" rx="55" ry="35" fill="white" stroke="#7e7e7e" stroke-width="2" stroke-linecap="round" stroke-linejoin="round"/></g><g transform="translate(1298.545, 686.0000000000002) rotate(0, 26.455, 9)" width="52.91" height="18"><text text-decoration="none" x="1.9549999999999983" fill="#4b4b4b" font-size="10pt" font-family="noto_regular"  y="15">Choice&#160;</text><text text-decoration="none" x="43.955" fill="#4b4b4b" font-size="10pt" font-family="noto_regular"  y="15">1</text><text text-decoration="none" x="50.955" fill="#4b4b4b" font-size="10pt" font-family="noto_regular"  y="15"></text></g></g><g id="YksaY0VcDJ4"><g transform="translate(1279.9999999999998 730.0000000000002)"><ellipse cx="55" cy="35" rx="55" ry="35" fill="white" stroke="#7e7e7e" stroke-width="2" stroke-linecap="round" stroke-linejoin="round"/></g><g transform="translate(1308.5449999999998, 756.0000000000002) rotate(0, 26.455, 9)" width="52.91" height="18"><text text-decoration="none" x="1.9549999999999983" fill="#4b4b4b" font-size="10pt" font-family="noto_regular"  y="15">Choice&#160;</text><text text-decoration="none" x="43.955" fill="#4b4b4b" font-size="10pt" font-family="noto_regular"  y="15">2</text><text text-decoration="none" x="50.955" fill="#4b4b4b" font-size="10pt" font-family="noto_regular"  y="15"></text></g></g><g id="M2sUIXq4XnK"><g transform="translate(1280.0000000000002 800.0000000000002)"><ellipse cx="55" cy="35" rx="55" ry="35" fill="white" stroke="#7e7e7e" stroke-width="2" stroke-linecap="round" stroke-linejoin="round"/></g><g transform="translate(1308.5450000000003, 826.0000000000002) rotate(0, 26.455, 9)" width="52.91" height="18"><text text-decoration="none" x="1.9549999999999983" fill="#4b4b4b" font-size="10pt" font-family="noto_regular"  y="15">Choice&#160;</text><text text-decoration="none" x="43.955" fill="#4b4b4b" font-size="10pt" font-family="noto_regular"  y="15">3</text><text text-decoration="none" x="50.955" fill="#4b4b4b" font-size="10pt" font-family="noto_regular"  y="15"></text></g></g><g id="cklB0SCubMo"><g transform="translate(1280.0000000000002 870.0000000000005)"><ellipse cx="55" cy="35" rx="55" ry="35" fill="white" stroke="#7e7e7e" stroke-width="2" stroke-linecap="round" stroke-linejoin="round"/></g><g transform="translate(1308.5450000000003, 896.0000000000005) rotate(0, 26.455, 9)" width="52.91" height="18"><text text-decoration="none" x="1.9549999999999983" fill="#4b4b4b" font-size="10pt" font-family="noto_regular"  y="15">Choice&#160;</text><text text-decoration="none" x="43.955" fill="#4b4b4b" font-size="10pt" font-family="noto_regular"  y="15">4</text><text text-decoration="none" x="50.955" fill="#4b4b4b" font-size="10pt" font-family="noto_regular"  y="15"></text></g></g><g id="6QeSxDzzWOg"><g transform="translate(1279.9999999999998 940.0000000000002)"><ellipse cx="60.000000000000234" cy="35" rx="60.000000000000234" ry="35" fill="white" stroke="#7e7e7e" stroke-width="2" stroke-linecap="round" stroke-linejoin="round"/></g><g transform="translate(1294.1, 966.0000000000002) rotate(0, 45.9, 9)" width="91.8" height="18"><text text-decoration="none" x="4.399999999999999" fill="#4b4b4b" font-size="10pt" font-family="noto_regular"  y="15">Correct&#160;</text><text text-decoration="none" x="48.4" fill="#4b4b4b" font-size="10pt" font-family="noto_regular"  y="15">Choice</text><text text-decoration="none" x="87.4" fill="#4b4b4b" font-size="10pt" font-family="noto_regular"  y="15"></text></g></g><g id="qxlmM30mNc9"><g transform="translate(1279.9999999999998 1009.9999999999999)"><ellipse cx="64.99999999999977" cy="35" rx="64.99999999999977" ry="35" fill="white" stroke="#7e7e7e" stroke-width="2" stroke-linecap="round" stroke-linejoin="round"/></g><g transform="translate(1294.6149999999996, 1036) rotate(0, 50.385, 9)" width="100.77" height="18"><text text-decoration="none" x="5.384999999999998" fill="#4b4b4b" font-size="10pt" font-family="noto_regular"  y="15">Question&#160;</text><text text-decoration="none" x="59.385" fill="#4b4b4b" font-size="10pt" font-family="noto_regular"  y="15">Image</text><text text-decoration="none" x="95.38499999999999" fill="#4b4b4b" font-size="10pt" font-family="noto_regular"  y="15"></text></g></g><g id="zrJyu6UyCBd"><g><path d="M 450,105 L 550,190" fill="none" stroke="#7E7E7E" stroke-width="2" stroke-linecap="round" stroke-linejoin="round"/></g></g><g id="zCebUgb0Iyt"><g><path d="M 450,195 L 550,190" fill="none" stroke="#7E7E7E" stroke-width="2" stroke-linecap="round" stroke-linejoin="round"/></g></g><g id="YymY27lgmOd"><g><path d="M 440,325 L 550,360" fill="none" stroke="#7E7E7E" stroke-width="2" stroke-linecap="round" stroke-linejoin="round"/></g></g><g id="MQjdSYf6hGc"><g><path d="M 450,415 L 550,360" fill="none" stroke="#7E7E7E" stroke-width="2" stroke-linecap="round" stroke-linejoin="round"/></g></g><g id="VDflKm8vhNE"><g><path d="M 470,555 L 550,640" fill="none" stroke="#7E7E7E" stroke-width="2" stroke-linecap="round" stroke-linejoin="round"/></g></g><g id="tuqRQtN1Tu2"><g><path d="M 470,645 L 550,640" fill="none" stroke="#7E7E7E" stroke-width="2" stroke-linecap="round" stroke-linejoin="round"/></g></g><g id="AKeqj4kv5YT"><g><path d="M 480,735 L 550,640" fill="none" stroke="#7E7E7E" stroke-width="2" stroke-linecap="round" stroke-linejoin="round"/></g></g><g id="37TWfOBPDRg"><g><path d="M 670,190 L 790,190" fill="none" stroke="#7E7E7E" stroke-width="2" stroke-linecap="round" stroke-linejoin="round"/><path d="M 670,190 L 676.9565217391305,196.49717514124293 M 670,190 L 676.9565217391304,183.50282485875707 Z" fill="rgb(255,255,255)" stroke="#7E7E7E" stroke-width="2" stroke-linecap="round" stroke-linejoin="round"/></g></g><g id="kR5qQiGDpEA"><g><path d="M 910,190 L 1010,190" fill="none" stroke="#7E7E7E" stroke-width="2" stroke-linecap="round" stroke-linejoin="round"/></g></g><g id="OIZicGqJg4C"><g><path d="M 1190,135 L 1130,190" fill="none" stroke="#7E7E7E" stroke-width="2" stroke-linecap="round" stroke-linejoin="round"/></g></g><g id="5cORdSNsPb5"><g><path d="M 1200,225 L 1130,190" fill="none" stroke="#7E7E7E" stroke-width="2" stroke-linecap="round" stroke-linejoin="round"/></g></g><g id="sIW9aYvIzoM"><g><path d="M 1070,690 L 1070,630" fill="none" stroke="#7E7E7E" stroke-width="2" stroke-linecap="round" stroke-linejoin="round"/></g></g><g id="jS1x7hEJ9ca"><g><path d="M 1070,540 L 1070,570" fill="none" stroke="#7E7E7E" stroke-width="2" stroke-linecap="round" stroke-linejoin="round"/></g></g><g id="r32eN4Y04aI"><g><path d="M 1070,460 L 1070,430" fill="none" stroke="#7E7E7E" stroke-width="2" stroke-linecap="round" stroke-linejoin="round"/></g></g><g id="kEK8H24JfLx"><g><path d="M 1070,370 L 1070,350" fill="none" stroke="#7E7E7E" stroke-width="2" stroke-linecap="round" stroke-linejoin="round"/></g></g><g id="kSHtwhKby1f"><g><path d="M 1070,270 L 1070,220" fill="none" stroke="#7E7E7E" stroke-width="2" stroke-linecap="round" stroke-linejoin="round"/></g></g><g id="EhJpIIPVcdN"><g><path d="M 670,360 L 720,360 Q 730,360 730,370 L 730,440 L 730,510 Q 730,520 740,520 L 790,520" fill="none" stroke="#7E7E7E" stroke-width="2" stroke-linecap="round" stroke-linejoin="round"/><path d="M 670,360 L 676.9565217391304,366.49717514124296 M 670,360 L 676.9565217391304,353.50282485875704 Z" fill="rgb(255,255,255)" stroke="#7E7E7E" stroke-width="2" stroke-linecap="round" stroke-linejoin="round"/></g></g><g id="ogMWwYDRSVv"><g><path d="M 910,520 L 950,520 Q 960,520 960,530 L 960,560 L 960,590.0000016621399 Q 960,600.0000016621399 970,600.000001329712 L 1010,600" fill="none" stroke="#7E7E7E" stroke-width="2" stroke-linecap="round" stroke-linejoin="round"/></g></g><g id="NFk1ioP1c6h"><g><path d="M 1130,400 L 1280,305" fill="none" stroke="#7E7E7E" stroke-width="2" stroke-linecap="round" stroke-linejoin="round"/></g></g><g id="IZCZq4GiVmK"><g><path d="M 1130,400 L 1280,395" fill="none" stroke="#7E7E7E" stroke-width="2" stroke-linecap="round" stroke-linejoin="round"/></g></g><g id="5KujQ4CYk8c"><g><path d="M 1130,400 L 1270,475" fill="none" stroke="#7E7E7E" stroke-width="2" stroke-linecap="round" stroke-linejoin="round"/></g></g><g id="RA7K1FH05iX"><g><path d="M 1130,600 L 1250,555" fill="none" stroke="#7E7E7E" stroke-width="2" stroke-linecap="round" stroke-linejoin="round"/></g></g><g id="7Nv8sMjnXYN"><g><path d="M 1130,600 L 1270,625" fill="none" stroke="#7E7E7E" stroke-width="2" stroke-linecap="round" stroke-linejoin="round"/></g></g><g id="xPZHArHojIc"><g><path d="M 1130,600 L 1270,695" fill="none" stroke="#7E7E7E" stroke-width="2" stroke-linecap="round" stroke-linejoin="round"/></g></g><g id="uQeavsA0q2F"><g><path d="M 1130,600 L 1280,765" fill="none" stroke="#7E7E7E" stroke-width="2" stroke-linecap="round" stroke-linejoin="round"/></g></g><g id="nZCUpXu3SZL"><g><path d="M 1130,600 L 1280,835" fill="none" stroke="#7E7E7E" stroke-width="2" stroke-linecap="round" stroke-linejoin="round"/></g></g><g id="ShSeg7Ol59h"><g><path d="M 1130,600 L 1280,905" fill="none" stroke="#7E7E7E" stroke-width="2" stroke-linecap="round" stroke-linejoin="round"/></g></g><g id="HW4ZS1RE6Nk"><g><path d="M 1130,600 L 1280,975" fill="none" stroke="#7E7E7E" stroke-width="2" stroke-linecap="round" stroke-linejoin="round"/></g></g><g id="TfIJinBfAhr"><g><path d="M 1130,600 L 1280,1045" fill="none" stroke="#7E7E7E" stroke-width="2" stroke-linecap="round" stroke-linejoin="round"/></g></g><g id="aoTA8xMuvyA"><g><path d="M 1010,730 L 870,730" fill="none" stroke="#7E7E7E" stroke-width="2" stroke-linecap="round" stroke-linejoin="round"/><path d="M 870,730 L 876.9565218162677,736.4971750586521 M 870,730 L 876.9565216619932,723.5028247761662 Z" fill="rgb(255,255,255)" stroke="#7E7E7E" stroke-width="2" stroke-linecap="round" stroke-linejoin="round"/></g></g><g id="HKyUbqsMuCU"><g><path d="M 750,730 L 670,730" fill="none" stroke="#7E7E7E" stroke-width="2" stroke-linecap="round" stroke-linejoin="round"/></g></g><g id="LTE6YVbxFmy"><g><path d="M 610,690 L 610,670" fill="none" stroke="#7E7E7E" stroke-width="2" stroke-linecap="round" stroke-linejoin="round"/></g></g><g id="Tzdseg6WmhH"><g><path d="M 610,610 L 610,570" fill="none" stroke="#7E7E7E" stroke-width="2" stroke-linecap="round" stroke-linejoin="round"/></g></g><g id="iapJ3tmeuQa"><g><path d="M 610,490 L 610,390" fill="none" stroke="#7E7E7E" stroke-width="2" stroke-linecap="round" stroke-linejoin="round"/><path d="M 610,390 L 603.5028248587571,396.95652173913044 M 610,390 L 616.4971751412429,396.95652173913044 Z" fill="rgb(255,255,255)" stroke="#7E7E7E" stroke-width="2" stroke-linecap="round" stroke-linejoin="round"/></g></g><g id="60fBQMH08D2"><g><path d="M 810,760 L 815,890" fill="none" stroke="#7E7E7E" stroke-width="2" stroke-linecap="round" stroke-linejoin="round"/></g></g><g id="7iouG1LhUZb"><g><path d="M 810,760 L 960,810" fill="none" stroke="#7E7E7E" stroke-width="2" stroke-linecap="round" stroke-linejoin="round"/></g></g><g id="ymrAuQuKFjo"><g><path d="M 810,760 L 675,810" fill="none" stroke="#7E7E7E" stroke-width="2" stroke-linecap="round" stroke-linejoin="round"/></g></g><g id="NjdpQjxUXUK"><g transform="translate(979.9999999999998 969.9999999999999)"><ellipse cx="50" cy="30" rx="50" ry="30" fill="white" stroke="#7e7e7e" stroke-width="2" stroke-linecap="round" stroke-linejoin="round"/></g><g transform="translate(1002.0699999999998, 990.8) rotate(0, 27.93, 9.2)" width="55.86" height="18.4"><text text-decoration="none" x="3.9299999999999997" fill="#4b4b4b" font-size="10pt" font-family="noto_regular"  y="15">Attribute</text><text text-decoration="none" x="51.93" fill="#4b4b4b" font-size="10pt" font-family="noto_regular"  y="15"></text></g></g></svg>